<?xml version="1.0" standalone="no"?>
<!DOCTYPE svg PUBLIC "-//W3C//DTD SVG 20010904//EN"
 "http://www.w3.org/TR/2001/REC-SVG-20010904/DTD/svg10.dtd">
<svg version="1.0" xmlns="http://www.w3.org/2000/svg"
 width="591.065259pt" height="836.000000pt" viewBox="0 0 591.065259 836.000000"
 preserveAspectRatio="xMidYMid meet">
<metadata>
Created by potrace 1.12, written by Peter Selinger 2001-2015
</metadata>
<g transform="translate(-705.934741,986.000000) scale(0.100000,-0.100000)"
fill="#000000" stroke="none">
<path d="M9410 8957 l0 -903 -87 -51 c-49 -28 -164 -94 -258 -148 -434 -248
-783 -450 -817 -472 l-38 -23 0 -500 0 -500 -42 -26 c-24 -14 -81 -47 -128
-73 -80 -46 -134 -78 -370 -219 l-95 -57 -3 -598 -2 -597 -255 0 -255 0 0
-109 0 -110 263 -3 c144 -2 615 -1 1046 2 l784 5 18 52 c10 29 86 211 169 406
l152 353 -38 64 c-55 93 -74 165 -74 274 0 177 50 298 174 421 45 44 93 89
108 100 l26 20 -15 75 c-13 63 -16 200 -19 835 l-4 760 165 95 c91 52 170 97
175 98 6 2 10 -210 10 -582 l0 -586 68 0 c37 0 91 -6 120 -14 l52 -13 0 800
c0 757 -1 799 -17 792 -18 -6 -378 -213 -487 -279 -33 -20 -66 -36 -73 -36
-11 0 -13 108 -11 619 2 341 6 622 10 626 3 4 206 -107 450 -246 243 -139 619
-352 833 -474 215 -122 405 -230 423 -239 l32 -17 0 -424 c0 -234 -3 -425 -6
-425 -3 0 -18 8 -32 18 -15 11 -124 74 -242 142 -118 67 -224 129 -235 136
-11 8 -22 14 -25 14 -4 0 -5 -3272 -1 -3352 1 -17 58 -18 1056 -18 l1055 0 0
110 0 110 -260 0 -260 0 0 1115 0 1115 -70 45 c-39 25 -72 45 -75 45 -2 0 -93
51 -202 114 -109 62 -254 145 -323 185 -69 39 -132 75 -140 80 -13 7 -16 84
-20 566 l-5 558 -180 102 c-99 56 -234 132 -300 170 -66 37 -235 133 -375 213
-140 80 -302 172 -360 205 -58 33 -159 90 -225 127 -66 37 -136 76 -155 87
-19 11 -109 62 -200 113 -91 51 -218 124 -283 161 -65 38 -120 69 -122 69 -3
0 -5 -406 -5 -903z m0 -1906 l0 -730 -36 -38 c-99 -106 -170 -234 -201 -365
-23 -94 -24 -292 -3 -363 23 -76 19 -200 -7 -255 l-21 -45 -1 818 -1 818 -22
-7 c-12 -3 -53 -26 -92 -50 -39 -23 -141 -83 -226 -133 -159 -92 -182 -105
-284 -166 -32 -19 -62 -35 -67 -35 -5 0 -9 161 -9 364 l0 363 83 50 c45 28
172 102 282 166 110 63 286 164 390 225 105 61 196 111 203 111 9 1 12 -151
12 -728z m1830 410 l155 -88 3 -1291 2 -1291 -165 0 -165 -1 0 1380 c0 759 3
1380 8 1379 4 0 77 -40 162 -88z m522 -299 c68 -38 196 -111 286 -163 l162
-94 0 -1057 0 -1058 -292 0 -293 0 -2 1220 c-2 752 1 1220 7 1220 5 0 65 -31
132 -68z m-2852 -1517 l0 -855 -235 0 -235 0 2 721 3 721 225 134 c124 73 228
133 233 133 4 1 7 -384 7 -854z m-700 -205 l0 -650 -200 0 -200 0 0 534 0 534
58 36 c138 88 318 194 330 195 9 1 12 -135 12 -649z"/>
<path d="M11263 7085 c0 -22 2 -30 4 -17 2 12 2 30 0 40 -3 9 -5 -1 -4 -23z"/>
<path d="M11273 4855 c0 -27 2 -38 4 -22 2 15 2 37 0 50 -2 12 -4 0 -4 -28z"/>
<path d="M9810 9080 c0 -57 2 -101 5 -98 8 7 8 189 1 196 -4 3 -6 -41 -6 -98z"/>
<path d="M9813 8595 c0 -33 2 -45 4 -27 2 18 2 45 0 60 -2 15 -4 0 -4 -33z"/>
<path d="M9809 8388 c-6 -51 0 -78 17 -71 7 3 11 10 7 16 -4 6 -8 27 -10 46
-5 47 -10 49 -14 9z"/>
<path d="M11259 8248 c-1 -7 -1 -30 0 -52 1 -62 11 -55 11 7 0 32 -2 57 -5 57
-3 0 -6 -6 -6 -12z"/>
<path d="M9909 6807 c-55 -37 -59 -53 -59 -253 0 -219 3 -240 42 -260 26 -14
29 -19 26 -60 -3 -45 -4 -46 -54 -63 -123 -41 -224 -128 -280 -240 -24 -48
-29 -70 -32 -164 -5 -129 9 -180 75 -279 35 -52 44 -73 39 -92 -3 -14 -62
-159 -130 -323 -68 -164 -163 -395 -211 -513 -48 -118 -95 -233 -105 -255 -10
-22 -41 -98 -69 -170 -53 -137 -107 -270 -213 -525 -36 -85 -73 -176 -83 -202
-10 -27 -21 -48 -25 -48 -12 0 -113 127 -163 205 -129 202 -212 452 -224 678
-6 108 -8 118 -27 122 -12 3 -320 4 -686 3 l-665 -3 -3 -112 -3 -113 348 -2
347 -3 13 -89 c44 -308 184 -639 391 -930 86 -121 296 -334 450 -457 16 -13
15 1 -3 44 -11 26 -15 73 -15 164 l0 128 -46 50 c-177 191 -266 318 -359 510
-94 193 -148 366 -169 543 l-7 52 99 0 99 0 7 -62 c8 -78 56 -265 92 -355 78
-198 207 -399 363 -566 l60 -64 3 -224 c2 -181 -1 -242 -15 -318 -10 -51 -16
-95 -14 -97 2 -2 58 90 125 204 66 114 127 216 135 226 14 19 17 18 88 -26
488 -302 1116 -355 1652 -139 107 43 211 96 279 142 32 22 61 39 65 39 5 0 46
-69 92 -153 85 -152 181 -310 186 -305 2 2 -4 32 -12 68 -12 48 -16 132 -18
325 l-2 260 80 85 c85 92 217 281 272 391 82 161 146 357 161 490 4 31 10 62
14 69 5 9 62 10 229 4 196 -6 221 -9 217 -23 -3 -9 -15 -65 -26 -126 -56 -278
-163 -547 -306 -765 -123 -187 -241 -321 -451 -512 -63 -56 -63 -57 -63 -111
0 -30 7 -74 16 -98 25 -70 23 -166 -6 -217 -13 -23 -28 -42 -34 -42 -6 0 -68
55 -138 123 l-126 122 -89 -47 c-151 -81 -385 -160 -603 -204 -71 -14 -336
-43 -407 -44 l-33 0 0 119 0 118 -112 7 c-273 17 -505 76 -747 192 -63 30
-117 51 -120 46 -3 -5 -35 -48 -70 -96 -36 -49 -60 -91 -55 -96 39 -37 309
-148 484 -198 197 -56 272 -69 533 -88 l87 -6 0 -349 0 -349 153 1 c83 0 161
4 171 8 16 6 29 45 66 197 69 276 68 274 90 274 25 0 340 80 363 92 20 10 5
24 215 -200 74 -78 141 -142 149 -142 21 0 226 101 323 158 153 91 242 155
237 171 -2 9 -28 111 -58 228 l-54 212 45 37 c25 21 89 81 142 133 111 109 91
104 248 59 335 -95 319 -91 337 -77 39 33 235 354 283 467 l23 53 -54 49 c-30
27 -107 100 -173 162 l-119 114 35 104 c20 58 43 139 53 180 10 41 23 80 29
87 9 10 274 84 414 115 l42 10 0 64 0 64 -127 0 c-69 0 -124 2 -122 5 3 2 62
5 132 6 l127 2 0 119 0 118 -689 0 -689 0 -7 -92 c-15 -212 -87 -462 -177
-623 -49 -87 -171 -258 -202 -285 -14 -11 -18 -7 -32 26 -9 22 -37 89 -64 149
-53 122 -120 281 -140 335 -18 49 -118 287 -141 336 -10 22 -19 46 -19 52 0 7
-4 20 -10 30 -5 9 -37 85 -71 167 -33 83 -90 222 -125 310 -36 88 -110 269
-166 402 l-101 242 35 39 c80 88 122 241 99 354 -35 176 -152 309 -313 356
l-58 17 0 55 c0 50 3 56 29 71 36 21 41 49 41 252 0 179 -9 214 -62 247 -49
29 -153 28 -199 -3z m196 -871 c63 -29 100 -72 120 -138 38 -129 -69 -263
-210 -263 -129 0 -220 87 -220 210 0 86 38 149 114 188 69 34 128 35 196 3z
m25 -821 c37 -93 118 -291 180 -440 62 -148 129 -313 150 -365 44 -110 330
-792 426 -1018 36 -84 64 -155 62 -156 -102 -75 -255 -157 -373 -201 -408
-151 -875 -128 -1260 62 -112 55 -235 134 -235 151 0 11 117 299 245 602 20
47 58 139 85 205 27 66 60 147 73 180 l25 60 109 6 c59 3 95 6 79 7 -61 4 -14
13 99 18 66 3 124 8 129 12 13 8 -31 18 -94 23 -39 2 -36 3 25 9 49 5 15 7
-117 8 -213 2 -204 -2 -163 84 13 29 59 136 100 238 42 102 124 299 182 438
l107 253 49 -3 49 -3 68 -170z"/>
<path d="M9950 4503 c0 -1 14 -10 31 -19 17 -8 28 -11 25 -6 -3 6 1 12 9 16 8
3 15 2 15 -2 0 -4 9 -8 20 -8 25 0 26 13 1 21 -17 5 -101 3 -101 -2z"/>
<path d="M10250 4281 c-41 -4 -64 -9 -51 -11 14 -3 26 -11 29 -19 3 -8 0 -11
-7 -7 -6 4 -11 2 -11 -3 0 -6 11 -11 24 -11 13 0 39 -3 57 -7 32 -8 32 -8 -21
-14 -41 -4 -27 -6 58 -7 126 -2 148 6 136 53 -5 22 -11 25 -53 25 -25 0 -55 2
-66 4 -11 1 -54 0 -95 -3z"/>
<path d="M10110 4239 c0 -5 17 -9 37 -9 20 0 33 3 29 7 -11 11 -66 12 -66 2z"/>
<path d="M9873 4203 c9 -2 25 -2 35 0 9 3 1 5 -18 5 -19 0 -27 -2 -17 -5z"/>
<path d="M11094 4308 c-3 -4 5 -9 18 -9 17 -1 18 -3 6 -6 -33 -8 -18 -21 22
-19 27 2 40 -2 40 -11 0 -7 5 -13 10 -13 6 0 10 9 10 20 0 33 -90 65 -106 38z"/>
<path d="M8836 4275 c-3 -9 -6 -24 -5 -33 0 -9 5 -4 10 12 9 32 6 48 -5 21z"/>
<path d="M8862 4274 c-13 -24 -2 -74 16 -74 12 0 13 3 4 12 -17 17 -15 26 6
31 16 4 16 5 0 6 -10 0 -18 6 -18 12 0 6 7 9 15 6 8 -4 17 -2 20 2 2 5 -4 11
-15 14 -12 3 -23 -1 -28 -9z"/>
<path d="M10857 4263 c18 -2 50 -2 70 0 21 2 7 4 -32 4 -38 0 -55 -2 -38 -4z"/>
<path d="M9016 4228 c-6 -18 -9 -20 -14 -8 -6 13 -11 11 -31 -7 l-24 -23 29 0
c17 0 36 6 43 13 11 10 13 9 8 -5 -4 -12 -2 -15 8 -12 8 3 13 16 12 27 -1 13
3 21 11 20 6 -2 12 2 12 7 0 6 -11 10 -24 10 -16 0 -26 -7 -30 -22z"/>
<path d="M11030 4220 c-8 -5 -11 -12 -7 -16 4 -4 13 -2 19 4 15 15 7 24 -12
12z"/>
<path d="M9078 4213 c12 -2 30 -2 40 0 9 3 -1 5 -23 4 -22 0 -30 -2 -17 -4z"/>
<path d="M11913 3643 c-16 -6 -17 -63 -2 -63 6 0 9 8 6 19 -2 10 0 26 5 35 5
9 8 16 6 15 -2 0 -9 -3 -15 -6z"/>
<path d="M11646 3199 c-11 -13 -15 -27 -10 -37 6 -15 8 -14 12 3 2 11 9 26 15
33 17 22 2 23 -17 1z"/>
<path d="M11442 2844 c-2 -80 1 -104 13 -114 12 -10 15 -10 15 3 0 9 10 17 23
19 14 2 21 9 21 21 -1 11 5 17 20 17 16 0 11 6 -21 26 -37 22 -43 30 -45 62
l-1 37 -6 -35 c-5 -34 -5 -34 -11 15 -6 40 -7 29 -8 -51z"/>
<path d="M8235 2621 c35 -37 75 -68 75 -58 0 2 -26 25 -57 52 l-58 48 40 -42z"/>
<path d="M8560 2486 c0 -9 -4 -16 -10 -16 -5 0 -10 -8 -10 -17 0 -15 2 -16 10
-3 8 12 10 11 10 -7 0 -13 5 -23 10 -23 6 0 10 15 10 34 0 19 -4 38 -10 41 -5
3 -10 -1 -10 -9z"/>
<path d="M8312 2145 c-1 -17 -7 -36 -13 -42 -8 -8 -8 -20 -1 -40 l10 -28 6 26
c4 14 6 45 3 70 -2 30 -4 34 -5 14z"/>
<path d="M9284 2069 c-3 -5 11 -9 31 -9 20 0 34 4 31 9 -3 5 -17 9 -31 9 -14
0 -28 -4 -31 -9z"/>
<path d="M9591 1898 c-1 -10 9 -27 22 -38 19 -18 23 -19 25 -6 2 9 8 14 13 11
12 -8 11 6 -1 25 -8 13 -11 12 -24 -5 -14 -20 -15 -20 -25 5 -6 17 -10 19 -10
8z"/>
<path d="M8633 1818 c7 -4 22 -8 35 -8 12 0 22 -6 22 -12 0 -9 3 -9 9 1 5 8
18 12 30 8 25 -6 28 9 3 17 -26 8 -113 3 -99 -6z"/>
</g>
</svg>
